<?xml version="1.0" encoding="utf-8"?>
<!-- Generator: Adobe Illustrator 16.0.0, SVG Export Plug-In . SVG Version: 6.00 Build 0)  -->
<!DOCTYPE svg PUBLIC "-//W3C//DTD SVG 1.1//EN" "http://www.w3.org/Graphics/SVG/1.1/DTD/svg11.dtd">
<svg version="1.1" id="Layer_1" xmlns="http://www.w3.org/2000/svg" xmlns:xlink="http://www.w3.org/1999/xlink" x="0px" y="0px"
	 width="100px" height="100px" viewBox="0 0 100 100" enable-background="new 0 0 100 100" xml:space="preserve">
<g>
	<g>
		<path fill="#212123" d="M-102.11,66.358c-0.783,0-1.722,0.593-1.722-11.139c0-15.455,1.038-23.896,1.569-23.896l5.908-2.859
			c3.974,0,11.139,16.213,11.139,27.944c0,5.413-2.473,9.95-8.791,9.95H-102.11z M-98.952,54.501c0,7.04,2.067,7.854,3.819,7.854
			c1.688,0,4.849-1.597,4.849-7.228c0-7.728-4.006-15.852-6.039-15.852c-2.189,0-2.629,8.779-2.629,10.752V54.501z"/>
		<path fill="#212123" d="M-75.535,66.826c-6.321,0-8.792-3.344-8.792-7.331c0-5.928,4.506-17.465,10.356-17.465
			s10.355,11.537,10.355,17.465c0,3.987-2.472,7.331-8.792,7.331H-75.535z M-68.683,58.987c0-5.098-3.191-13.222-5.287-13.222
			c-2.098,0-5.288,8.124-5.288,13.222c0,2.697,1.971,3.735,5.288,3.735C-70.655,62.723-68.683,61.685-68.683,58.987z"/>
		<path fill="#212123" d="M-44.814,44.565c0.626,0,1.217,4.752,1.217,12.339c0,6.191-2.815,9.922-9.512,9.922
			c-5.883,0-9.479-3.054-9.479-9.354c0-6.742,1.188-12.049,1.595-12.049h4.349c0.312,0,0.688,0,0.688,0.273
			c0,0.484-1.564,6.277-1.564,11.122c0,4.782,2.566,6.259,4.412,6.259c1.563,0,4.942-0.273,4.942-6.048
			c0-5.478-1.531-10.955-1.531-11.333c0-0.339,0.905-0.273,1.188-0.273L-44.814,44.565z"/>
		<path fill="#212123" d="M-41.043,66.362c-1.658,0.042-1.157-0.688-1.314-4.931c0-2.799,1.722-18.562,2.628-18.562l4.975-1.36
			c0.22,0,0.595,0.042,0.595,0.417c0,0.462-3.63,12.42-3.63,18.189c0,2.883,1.878,3.571,3.599,3.571
			c2.879,0,4.631-1.775,5.413-1.775c0.594,0,1.814,4.034,1.814,4.139c0,0.42-0.969,0.312-1.345,0.312H-41.043z"/>
		<path fill="#212123" d="M-13.023,66.358c-0.28,0-1.188,0.095-1.188-0.376c0-0.876,2.41-4.006,2.41-7.572
			c0-1.406-1.346-1.939-2.754-1.939c-2.847,0-7.384,0.501-7.384,4.066c0,2.473,2.034,5.133,2.034,5.601
			c0,0.188-0.188,0.221-0.595,0.221h-4.475c-1.596,0-2.032-2.815-2.032-6.882c0-13.391,8.105-26.735,9.481-26.735
			c1.032,0,10.291,11.59,10.291,26.109c0,8.354-1.346,7.508-2.283,7.508H-13.023z M-21.25,52.467c0,0.375,0.22,0.596,0.596,0.596
			c0.562,0,3.597-0.815,6.351-0.815c1.094,0,1.596-0.155,1.596-1.031c0-1.942-2.316-10.754-3.505-10.754
			C-17.903,40.462-21.25,50.183-21.25,52.467z"/>
	</g>
	<path d="M-84.645,5.292c-0.302,2.056-0.901,3.881-1.851,5.406c-0.634,1.018-1.456,1.762-2.48,2.186
		c-0.549,0.226-1.185,0.344-1.899,0.352c-1.319,0.014-2.388-0.418-3.175-1.199c-0.654-0.651-1.136-1.525-1.368-2.599
		c-0.233-1.078-0.216-2.286,0.104-3.646c1.203-0.259,1.814-0.386,3.054-0.642c-0.26,1.54-0.117,2.673,0.302,3.366
		c0.313,0.52,0.746,0.765,1.263,0.708c0.726-0.08,1.37-0.577,1.939-1.504c0.285-0.463,0.498-1.113,0.648-1.933
		c0.216-1.182,0.069-2.372-0.449-3.302c-0.37-0.667-1.039-1.686-1.612-2.859c-0.486-0.994-0.602-1.864-0.452-2.633
		c0.172-0.866,0.695-1.844,1.53-2.932c1.506-1.959,3.329-3.546,5.128-4.97c1.1-0.87,2.048-1.535,2.9-1.969
		c0.821-0.421,1.335-0.517,1.59-0.257c0.196,0.202,0.22,0.635,0.085,1.296c-0.137,0.67-0.429,1.533-0.883,2.595
		c-1.22,0.561-1.827,0.845-3.037,1.42c0.456-0.958,0.699-1.639,0.7-2.036c0.002-0.287-0.209-0.338-0.649-0.161
		c-0.466,0.188-1.012,0.603-1.645,1.239c-0.514,0.516-1.003,1.091-1.442,1.754c-0.687,1.041-0.982,2.013-0.812,2.967
		c0.064,0.367,0.258,0.797,0.582,1.281c0.392,0.586,0.677,1.072,0.804,1.334c0.401,0.84,0.759,1.771,0.946,2.729
		c0.09,0.454,0.157,0.88,0.197,1.277C-84.526,3.546-84.525,4.467-84.645,5.292z"/>
	<path d="M-75.685-12.209c-1.237,0.285-1.849,0.441-3.048,0.772c0.7-1.5,1.076-2.228,1.868-3.623
		c3.188-1.137,4.877-1.598,8.379-2.266c-0.442,1.527-0.651,2.32-1.04,3.954c-1.299,0.191-1.942,0.304-3.206,0.543
		c-2.771,8.923-3.706,14.32-3.868,25.542c-1.507,0.012-2.253,0.019-3.728,0.031C-80.131,1.761-79.01-3.524-75.685-12.209z"/>
	<g>
		<path d="M-64.786-19.167c-0.06,0.643-0.366,1.046-1.052,1.046c-0.681,0-1.06-0.443-1.089-1.028
			c-0.037-0.755,0.422-1.241,1.211-1.187C-65.05-20.289-64.788-19.804-64.786-19.167z"/>
		<path d="M-59.723-18.437c-0.608,0.216-1.103,0.107-1.391-0.517c-0.286-0.615-0.044-1.147,0.477-1.42
			c0.667-0.349,1.302-0.138,1.582,0.602C-58.816-19.148-59.148-18.707-59.723-18.437z"/>
		<path d="M-63.227-18.529c1.292-0.104,2.344,0.444,3.259,1.677c0.916,1.234,1.433,2.789,1.423,4.685
			c-0.025,6.276-0.032,9.766-0.043,17.058c-0.003,2.22-0.632,4.15-1.891,5.752c-1.259,1.604-2.772,2.422-4.519,2.425
			c-1.759,0.002-3.238-0.809-4.41-2.381c-1.17-1.575-1.696-3.453-1.576-5.606c0.401-7.137,0.807-10.549,1.884-16.669
			c0.329-1.864,1.134-3.438,2.292-4.78C-65.654-17.708-64.496-18.427-63.227-18.529z M-62.072-12.187
			c0.039-0.683-0.109-1.251-0.437-1.704c-0.326-0.451-0.735-0.662-1.242-0.628c-0.505,0.031-0.963,0.3-1.38,0.794
			c-0.418,0.493-0.679,1.078-0.76,1.753c-0.761,6.212-1.046,9.669-1.326,16.907c-0.032,0.789,0.166,1.463,0.594,2.017
			c0.422,0.545,0.956,0.827,1.581,0.819c0.629-0.006,1.172-0.294,1.619-0.856c0.451-0.568,0.681-1.257,0.696-2.052
			C-62.587-2.43-62.448-5.92-62.072-12.187z"/>
	</g>
	<path d="M-54.142-14.118c-1.368-0.087-2.06-0.117-3.451-0.15c-0.06-1.692-0.093-2.515-0.161-4.102
		c3.756,0.109,5.589,0.306,9.11,0.94c0.42,1.533,0.616,2.327,0.987,3.965c-1.305-0.183-1.965-0.262-3.301-0.396
		c1.484,9.314,1.983,14.911,2.071,26.523c-1.572-0.006-2.364-0.008-3.959-0.012C-52.901,0.938-53.214-4.705-54.142-14.118z"/>
	<path d="M-42.367-12.535c-1.256-0.264-1.895-0.387-3.187-0.603c-0.438-1.616-0.674-2.403-1.17-3.915
		c3.46,0.744,5.123,1.247,8.256,2.45c0.849,1.368,1.249,2.081,1.998,3.556c-1.174-0.348-1.773-0.513-2.987-0.818
		c3.597,8.555,4.812,13.771,5.023,24.624c-1.457-0.014-2.194-0.019-3.687-0.03C-38.298,1.622-39.325-3.727-42.367-12.535z"/>
	<path d="M-27.187,6.121c0.132,2.602,0.1,3.953-0.162,6.722c-1.439-0.019-2.169-0.03-3.652-0.046
		c1.318-12.449,0.302-18.225-4.951-26.357c1.325,0.592,1.97,0.909,3.216,1.578c8.367,8.554,12.102,14.045,13.94,24.955
		c-1.34-0.022-2.021-0.035-3.409-0.056c-0.398-2.626-0.717-3.93-1.534-6.482C-25.095,6.303-25.786,6.239-27.187,6.121z
		 M-30.758-7.735c1.812,3.563,2.456,5.556,3.166,9.809c0.96,0.133,1.434,0.204,2.37,0.346C-26.98-1.843-28.137-3.909-30.758-7.735z"
		/>
	<path d="M-82.125,35.123c-0.754-0.489-1.121-0.746-1.832-1.27c-8.269-6.095-11.202-10.458-11.735-19.661
		c1.568,0.04,2.376,0.059,4.032,0.095c1.415,7.123,3.363,10.687,8.013,16.964c-2.862-5.687-3.391-9.225-2.577-16.854
		c1.689,0.03,2.552,0.044,4.31,0.069c0.332,11.147,2.158,16.484,7.301,24.522c-0.892-0.354-1.328-0.542-2.186-0.938
		c-3.654-4.827-5.119-7.728-6.807-13.972c0.671,6.105,1.674,8.837,4.98,13.08c-0.663-0.343-0.987-0.519-1.626-0.887
		c-5.12-4.836-7.506-7.621-10.747-13.347C-88.793,28.457-86.886,31.003-82.125,35.123z"/>
	<path d="M-71.656,35.385c0.437,2.155,0.71,3.18,1.372,5.089c-0.992-0.287-1.479-0.442-2.437-0.779
		c-3.539-7.936-4.04-13.416-2.784-25.119c1.838,0.021,2.771,0.03,4.662,0.046c1.717,12.048,3.626,17.957,6.904,27.263
		c-1.072-0.167-1.603-0.267-2.646-0.487c-0.889-2.104-1.328-3.214-2.161-5.515C-69.924,35.702-70.506,35.603-71.656,35.385z
		 M-72.835,21.272c-0.071,4.469,0.045,6.607,0.601,10.554c0.874,0.122,1.315,0.183,2.205,0.292
		C-71.329,27.988-71.924,25.79-72.835,21.272z"/>
	<path d="M-59.147,42.415c-1.06-0.069-1.583-0.116-2.622-0.236c-1.581-9.248-2.144-15.188-2.246-27.546
		c2.041,0.009,3.073,0.015,5.154,0.019c1.382,8.961,2.229,13.31,3.391,20.865c1.13-7.558,1.947-11.904,3.274-20.865
		c1.999-0.004,2.991-0.008,4.954-0.017c-0.1,12.362-0.646,18.308-2.192,27.561c-1.04,0.118-1.566,0.162-2.628,0.229
		c0.547-5.867,0.768-9.292,1.02-16.577c-1.448,7.309-2.224,10.763-3.339,16.674c-0.866,0.019-1.307,0.019-2.175,0.003
		c-1.203-5.897-2.055-9.348-3.65-16.64C-59.943,33.148-59.715,36.562-59.147,42.415z"/>
	<path d="M-44.61,41.426c-0.995,0.206-1.5,0.299-2.521,0.459c2.146-9.137,2.907-15.022,3.047-27.266
		c2.014-0.013,3.009-0.02,4.969-0.037c1.127,8.597,1.236,12.675,0.191,19.527c3.104-7.211,4.551-11.301,5.927-19.592
		c1.81-0.022,2.7-0.034,4.447-0.06c-0.341,11.083-2.211,16.387-7.482,24.36c-0.885,0.364-1.335,0.535-2.253,0.857
		c2.888-5.214,4.045-8.307,5.38-14.938c-2.405,6.743-4.061,9.978-7.402,15.597c-0.76,0.229-1.145,0.341-1.924,0.542
		c1.238-5.243,1.365-8.443,0.916-15.391C-42.134,32.514-42.841,35.809-44.61,41.426z"/>
	<path d="M-28.024,32.284c-1.498,1.947-2.308,2.886-4.009,4.66c-0.85,0.454-1.285,0.67-2.177,1.08
		c6.794-8.112,9.931-13.296,11.712-23.648c1.646-0.032,2.45-0.047,4.021-0.083c0.773,9.695-1.161,14.055-8.632,19.561
		c-0.748,0.552-1.134,0.82-1.93,1.334c1.561-1.401,2.25-2.178,3.438-3.846C-26.547,31.733-27.035,31.921-28.024,32.284z
		 M-21.26,19.949c-1.302,3.812-2.25,5.669-4.495,9.151c0.753-0.215,1.124-0.324,1.856-0.551
		C-22.258,25.414-21.717,23.668-21.26,19.949z"/>
</g>
<g>
	<g>
		<path fill="#FFFFFF" d="M3.423,93.213c-0.783,0-1.722,0.594-1.722-11.138c0-15.456,1.038-23.896,1.568-23.896l5.909-2.859
			c3.974,0,11.139,16.212,11.139,27.945c0,5.411-2.473,9.948-8.792,9.948H3.423z M6.581,81.354c0,7.04,2.066,7.854,3.818,7.854
			c1.689,0,4.849-1.596,4.849-7.228c0-7.727-4.005-15.851-6.038-15.851c-2.19,0-2.629,8.781-2.629,10.753V81.354z"/>
		<path fill="#FFFFFF" d="M29.998,93.68c-6.321,0-8.792-3.342-8.792-7.331c0-5.925,4.505-17.464,10.356-17.464
			c5.851,0,10.355,11.539,10.355,17.464c0,3.989-2.472,7.331-8.792,7.331H29.998z M36.85,85.841c0-5.096-3.191-13.221-5.287-13.221
			c-2.098,0-5.288,8.125-5.288,13.221c0,2.697,1.971,3.736,5.288,3.736C34.878,89.577,36.85,88.538,36.85,85.841z"/>
		<path fill="#FFFFFF" d="M60.719,71.421c0.626,0,1.217,4.753,1.217,12.337c0,6.192-2.815,9.922-9.513,9.922
			c-5.881,0-9.479-3.054-9.479-9.354c0-6.74,1.188-12.048,1.595-12.048h4.349c0.312,0,0.688,0,0.688,0.273
			c0,0.485-1.564,6.278-1.564,11.121c0,4.784,2.566,6.259,4.411,6.259c1.564,0,4.943-0.273,4.943-6.045
			c0-5.48-1.531-10.956-1.531-11.335c0-0.337,0.905-0.273,1.188-0.273L60.719,71.421z"/>
		<path fill="#FFFFFF" d="M64.489,93.218c-1.658,0.042-1.158-0.689-1.314-4.933c0-2.799,1.723-18.56,2.628-18.56l4.976-1.36
			c0.219,0,0.594,0.04,0.594,0.417c0,0.46-3.63,12.42-3.63,18.188c0,2.882,1.878,3.571,3.599,3.571c2.879,0,4.631-1.774,5.413-1.774
			c0.595,0,1.813,4.033,1.813,4.139c0,0.418-0.968,0.312-1.344,0.312H64.489z"/>
		<path fill="#FFFFFF" d="M92.511,93.213c-0.281,0-1.189,0.094-1.189-0.376c0-0.876,2.41-4.006,2.41-7.57
			c0-1.409-1.346-1.939-2.754-1.939c-2.847,0-7.384,0.5-7.384,4.066c0,2.472,2.034,5.131,2.034,5.6c0,0.188-0.188,0.22-0.596,0.22
			h-4.474c-1.596,0-2.032-2.816-2.032-6.883c0-13.39,8.105-26.733,9.482-26.733c1.031,0,10.29,11.591,10.29,26.107
			c0,8.354-1.345,7.509-2.282,7.509H92.511z M84.282,79.32c0,0.378,0.221,0.596,0.596,0.596c0.562,0,3.598-0.813,6.352-0.813
			c1.094,0,1.595-0.155,1.595-1.033c0-1.939-2.315-10.752-3.505-10.752C87.63,67.317,84.282,77.038,84.282,79.32z"/>
	</g>
	<path fill="#FFFFFF" d="M20.887,32.149c-0.301,2.055-0.901,3.881-1.85,5.405c-0.634,1.019-1.457,1.763-2.48,2.187
		c-0.55,0.226-1.185,0.344-1.899,0.352c-1.319,0.014-2.388-0.417-3.176-1.198c-0.653-0.651-1.135-1.524-1.368-2.599
		c-0.232-1.078-0.216-2.286,0.105-3.646c1.203-0.259,1.814-0.386,3.053-0.642c-0.26,1.54-0.117,2.673,0.303,3.366
		c0.312,0.52,0.746,0.765,1.263,0.708c0.726-0.08,1.369-0.577,1.939-1.504c0.285-0.463,0.498-1.113,0.647-1.933
		c0.217-1.182,0.069-2.372-0.448-3.302c-0.371-0.667-1.039-1.686-1.612-2.859c-0.487-0.994-0.602-1.864-0.452-2.633
		c0.172-0.866,0.695-1.844,1.53-2.932c1.505-1.959,3.329-3.546,5.128-4.97c1.1-0.87,2.047-1.535,2.9-1.969
		c0.821-0.421,1.334-0.517,1.589-0.257c0.197,0.202,0.221,0.635,0.086,1.296c-0.137,0.67-0.429,1.532-0.883,2.595
		c-1.22,0.561-1.827,0.845-3.038,1.42c0.457-0.958,0.7-1.64,0.701-2.036c0.001-0.288-0.21-0.338-0.649-0.161
		c-0.466,0.188-1.012,0.603-1.645,1.239c-0.515,0.515-1.003,1.091-1.442,1.754c-0.687,1.041-0.982,2.013-0.812,2.967
		c0.065,0.367,0.259,0.797,0.583,1.281c0.392,0.586,0.677,1.072,0.803,1.334c0.402,0.84,0.759,1.771,0.947,2.728
		c0.09,0.454,0.157,0.88,0.196,1.277C21.007,30.403,21.008,31.324,20.887,32.149z"/>
	<path fill="#FFFFFF" d="M29.848,14.648c-1.237,0.285-1.85,0.441-3.049,0.772c0.701-1.5,1.077-2.228,1.869-3.623
		c3.188-1.137,4.877-1.598,8.379-2.266c-0.442,1.527-0.651,2.32-1.04,3.954c-1.299,0.191-1.942,0.304-3.206,0.543
		c-2.771,8.923-3.706,14.319-3.868,25.541c-1.507,0.012-2.253,0.019-3.728,0.031C25.401,28.617,26.522,23.333,29.848,14.648z"/>
	<g>
		<path fill="#FFFFFF" d="M40.747,7.69c-0.06,0.643-0.365,1.046-1.052,1.046c-0.681,0-1.06-0.442-1.089-1.027
			c-0.037-0.755,0.422-1.241,1.211-1.187C40.482,6.568,40.745,7.054,40.747,7.69z"/>
		<path fill="#FFFFFF" d="M45.81,8.421c-0.608,0.215-1.103,0.106-1.391-0.517c-0.286-0.615-0.044-1.147,0.477-1.42
			c0.667-0.349,1.302-0.138,1.582,0.601C46.717,7.709,46.385,8.151,45.81,8.421z"/>
		<path fill="#FFFFFF" d="M42.306,8.328c1.292-0.104,2.344,0.444,3.259,1.677c0.916,1.234,1.433,2.789,1.423,4.685
			c-0.025,6.275-0.032,9.765-0.043,17.057c-0.003,2.22-0.632,4.15-1.891,5.753c-1.259,1.604-2.772,2.422-4.519,2.425
			c-1.759,0.002-3.238-0.809-4.41-2.381c-1.171-1.575-1.696-3.453-1.576-5.607c0.401-7.136,0.807-10.548,1.884-16.668
			c0.329-1.864,1.134-3.438,2.292-4.78C39.879,9.15,41.037,8.43,42.306,8.328z M43.461,14.67c0.039-0.683-0.109-1.251-0.437-1.705
			c-0.326-0.451-0.734-0.661-1.242-0.628c-0.505,0.032-0.963,0.3-1.38,0.795c-0.418,0.493-0.679,1.078-0.76,1.753
			c-0.761,6.212-1.046,9.669-1.326,16.906c-0.032,0.789,0.166,1.463,0.594,2.017c0.422,0.545,0.956,0.827,1.581,0.819
			c0.629-0.006,1.172-0.294,1.619-0.856c0.451-0.568,0.681-1.257,0.696-2.052C42.945,24.427,43.086,20.937,43.461,14.67z"/>
	</g>
	<path fill="#FFFFFF" d="M51.391,12.739c-1.367-0.087-2.06-0.117-3.45-0.149c-0.061-1.692-0.093-2.515-0.161-4.103
		c3.755,0.109,5.587,0.306,9.109,0.941c0.419,1.533,0.616,2.327,0.987,3.965c-1.305-0.183-1.965-0.262-3.301-0.396
		c1.484,9.313,1.983,14.911,2.071,26.522c-1.572-0.006-2.364-0.008-3.959-0.011C52.632,27.795,52.317,22.152,51.391,12.739z"/>
	<path fill="#FFFFFF" d="M63.166,14.323c-1.257-0.264-1.895-0.387-3.187-0.603c-0.438-1.616-0.674-2.403-1.17-3.915
		c3.459,0.744,5.123,1.247,8.256,2.45c0.848,1.368,1.249,2.081,1.998,3.556c-1.174-0.348-1.773-0.513-2.987-0.818
		c3.597,8.554,4.812,13.77,5.023,24.623c-1.458-0.014-2.194-0.019-3.687-0.03C67.235,28.479,66.208,23.13,63.166,14.323z"/>
	<path fill="#FFFFFF" d="M78.346,32.977c0.132,2.602,0.1,3.953-0.162,6.722c-1.438-0.019-2.169-0.029-3.651-0.046
		c1.318-12.448,0.301-18.224-4.953-26.356c1.326,0.592,1.971,0.909,3.217,1.578c8.367,8.553,12.102,14.044,13.939,24.954
		c-1.339-0.021-2.02-0.034-3.408-0.056c-0.398-2.626-0.717-3.93-1.533-6.482C80.438,33.159,79.747,33.095,78.346,32.977z
		 M74.774,19.122c1.812,3.563,2.457,5.556,3.166,9.808c0.96,0.133,1.434,0.204,2.37,0.346
		C78.553,25.014,77.396,22.948,74.774,19.122z"/>
	<path fill="#FFFFFF" d="M23.408,61.979c-0.754-0.488-1.121-0.746-1.832-1.27C13.308,54.615,10.374,50.252,9.84,41.048
		c1.568,0.039,2.376,0.06,4.033,0.095c1.415,7.123,3.363,10.685,8.013,16.963c-2.863-5.686-3.392-9.224-2.578-16.854
		c1.69,0.03,2.553,0.044,4.311,0.069c0.332,11.147,2.158,16.484,7.301,24.522c-0.892-0.355-1.329-0.543-2.186-0.938
		c-3.654-4.826-5.119-7.728-6.807-13.972c0.67,6.106,1.674,8.837,4.98,13.081c-0.663-0.344-0.987-0.52-1.626-0.888
		c-5.121-4.836-7.506-7.621-10.748-13.346C16.739,55.312,18.646,57.859,23.408,61.979z"/>
	<path fill="#FFFFFF" d="M33.877,62.24c0.437,2.155,0.71,3.18,1.372,5.089c-0.992-0.288-1.479-0.443-2.437-0.778
		c-3.54-7.937-4.04-13.417-2.784-25.119c1.838,0.021,2.771,0.03,4.662,0.046c1.717,12.047,3.626,17.957,6.904,27.262
		c-1.072-0.168-1.603-0.267-2.646-0.486c-0.889-2.105-1.328-3.214-2.161-5.515C35.608,62.559,35.026,62.458,33.877,62.24z
		 M32.697,48.128c-0.071,4.468,0.044,6.607,0.601,10.553c0.873,0.123,1.314,0.183,2.205,0.292
		C34.204,54.845,33.608,52.646,32.697,48.128z"/>
	<path fill="#FFFFFF" d="M46.387,69.271c-1.061-0.069-1.584-0.116-2.623-0.236c-1.581-9.247-2.144-15.188-2.246-27.545
		c2.041,0.009,3.073,0.015,5.155,0.019c1.381,8.962,2.229,13.309,3.39,20.866c1.13-7.559,1.947-11.904,3.274-20.866
		c1.999-0.004,2.99-0.008,4.953-0.017c-0.1,12.362-0.646,18.308-2.191,27.56c-1.041,0.117-1.566,0.162-2.628,0.229
		c0.547-5.867,0.767-9.292,1.02-16.577c-1.448,7.309-2.225,10.764-3.339,16.675c-0.866,0.017-1.307,0.019-2.175,0.002
		c-1.203-5.897-2.055-9.348-3.65-16.64C45.591,60.005,45.817,63.418,46.387,69.271z"/>
	<path fill="#FFFFFF" d="M60.923,68.281c-0.995,0.206-1.5,0.299-2.521,0.459c2.146-9.137,2.908-15.022,3.047-27.265
		c2.014-0.013,3.01-0.021,4.97-0.037c1.128,8.597,1.236,12.674,0.19,19.526c3.104-7.211,4.552-11.3,5.928-19.591
		c1.811-0.021,2.699-0.033,4.447-0.06c-0.341,11.083-2.211,16.386-7.482,24.36c-0.885,0.362-1.335,0.535-2.254,0.856
		c2.889-5.213,4.047-8.307,5.381-14.938c-2.405,6.743-4.061,9.978-7.402,15.597c-0.76,0.229-1.145,0.341-1.924,0.543
		c1.238-5.244,1.365-8.444,0.916-15.391C63.399,59.37,62.69,62.665,60.923,68.281z"/>
	<path fill="#FFFFFF" d="M77.509,59.141c-1.498,1.946-2.308,2.885-4.008,4.659c-0.852,0.453-1.287,0.669-2.178,1.08
		c6.794-8.112,9.93-13.296,11.713-23.647c1.645-0.033,2.449-0.048,4.02-0.084c0.773,9.695-1.16,14.054-8.631,19.56
		c-0.749,0.552-1.135,0.82-1.931,1.335c1.561-1.402,2.25-2.179,3.438-3.847C78.985,58.589,78.499,58.776,77.509,59.141z
		 M84.272,46.805c-1.302,3.812-2.25,5.668-4.495,9.151c0.753-0.215,1.124-0.324,1.856-0.551
		C83.274,52.27,83.815,50.525,84.272,46.805z"/>
</g>
</svg>
